<mxfile host="app.diagrams.net" modified="2023-04-03T09:20:05.722Z" agent="Mozilla/5.0 (Windows NT 10.0; Win64; x64) AppleWebKit/537.36 (KHTML, like Gecko) Chrome/111.0.0.0 Safari/537.36" etag="zXQdh4SsPZ6gasyKTbu4" version="21.1.2" type="github">
  <diagram name="Page-1" id="PbTklsWXsMBjtW8ud5Ao">
    <mxGraphModel dx="1416" dy="970" grid="1" gridSize="10" guides="1" tooltips="1" connect="1" arrows="1" fold="1" page="1" pageScale="1" pageWidth="850" pageHeight="1100" math="0" shadow="0">
      <root>
        <mxCell id="0" />
        <mxCell id="1" parent="0" />
        <mxCell id="YSPkvzpbNLPz3blq78pu-1" value="" style="shape=cube;whiteSpace=wrap;html=1;boundedLbl=1;backgroundOutline=1;darkOpacity=0.05;darkOpacity2=0.1;shadow=0;" vertex="1" parent="1">
          <mxGeometry x="230" y="320" width="80" height="80" as="geometry" />
        </mxCell>
        <mxCell id="YSPkvzpbNLPz3blq78pu-2" value="" style="shape=cube;whiteSpace=wrap;html=1;boundedLbl=1;backgroundOutline=1;darkOpacity=0.05;darkOpacity2=0.1;rotation=-15;shadow=0;" vertex="1" parent="1">
          <mxGeometry x="230" y="320" width="80" height="80" as="geometry" />
        </mxCell>
        <mxCell id="YSPkvzpbNLPz3blq78pu-3" value="" style="shape=cube;whiteSpace=wrap;html=1;boundedLbl=1;backgroundOutline=1;darkOpacity=0.05;darkOpacity2=0.1;rotation=-30;shadow=0;" vertex="1" parent="1">
          <mxGeometry x="230" y="320" width="80" height="80" as="geometry" />
        </mxCell>
        <mxCell id="YSPkvzpbNLPz3blq78pu-4" value="" style="shape=cube;whiteSpace=wrap;html=1;boundedLbl=1;backgroundOutline=1;darkOpacity=0.05;darkOpacity2=0.1;rotation=-60;shadow=0;" vertex="1" parent="1">
          <mxGeometry x="230" y="320" width="80" height="80" as="geometry" />
        </mxCell>
        <mxCell id="YSPkvzpbNLPz3blq78pu-5" value="" style="shape=cube;whiteSpace=wrap;html=1;boundedLbl=1;backgroundOutline=1;darkOpacity=0.05;darkOpacity2=0.1;rotation=-75;shadow=0;" vertex="1" parent="1">
          <mxGeometry x="230" y="320" width="80" height="80" as="geometry" />
        </mxCell>
        <mxCell id="YSPkvzpbNLPz3blq78pu-6" value="" style="shape=cube;whiteSpace=wrap;html=1;boundedLbl=1;backgroundOutline=1;darkOpacity=0.05;darkOpacity2=0.1;rotation=-88;shadow=0;" vertex="1" parent="1">
          <mxGeometry x="230" y="320" width="80" height="80" as="geometry" />
        </mxCell>
        <mxCell id="YSPkvzpbNLPz3blq78pu-16" value="" style="group;fillColor=#04276c;strokeColor=#001DBC;fontColor=#ffffff;gradientColor=none;shadow=1;" vertex="1" connectable="0" parent="1">
          <mxGeometry x="220" y="520" width="250" height="220" as="geometry" />
        </mxCell>
        <mxCell id="YSPkvzpbNLPz3blq78pu-9" value="" style="shape=cube;whiteSpace=wrap;html=1;boundedLbl=1;backgroundOutline=1;darkOpacity=0.05;darkOpacity2=0.1;shadow=1;" vertex="1" parent="YSPkvzpbNLPz3blq78pu-16">
          <mxGeometry x="36.61165235168156" y="32.21825406947978" width="176.77669529663686" height="155.56349186104043" as="geometry" />
        </mxCell>
        <mxCell id="YSPkvzpbNLPz3blq78pu-10" value="" style="shape=cube;whiteSpace=wrap;html=1;boundedLbl=1;backgroundOutline=1;darkOpacity=0.05;darkOpacity2=0.1;rotation=-15;shadow=1;" vertex="1" parent="YSPkvzpbNLPz3blq78pu-16">
          <mxGeometry x="36.61165235168156" y="32.21825406947978" width="176.77669529663686" height="155.56349186104043" as="geometry" />
        </mxCell>
        <mxCell id="YSPkvzpbNLPz3blq78pu-11" value="" style="shape=cube;whiteSpace=wrap;html=1;boundedLbl=1;backgroundOutline=1;darkOpacity=0.05;darkOpacity2=0.1;rotation=-30;shadow=1;" vertex="1" parent="YSPkvzpbNLPz3blq78pu-16">
          <mxGeometry x="36.61165235168156" y="32.21825406947978" width="176.77669529663686" height="155.56349186104043" as="geometry" />
        </mxCell>
        <mxCell id="YSPkvzpbNLPz3blq78pu-12" value="" style="shape=cube;whiteSpace=wrap;html=1;boundedLbl=1;backgroundOutline=1;darkOpacity=0.05;darkOpacity2=0.1;rotation=-45;shadow=1;" vertex="1" parent="YSPkvzpbNLPz3blq78pu-16">
          <mxGeometry x="36.61165235168156" y="32.21825406947978" width="176.77669529663686" height="155.56349186104043" as="geometry" />
        </mxCell>
        <mxCell id="YSPkvzpbNLPz3blq78pu-13" value="" style="shape=cube;whiteSpace=wrap;html=1;boundedLbl=1;backgroundOutline=1;darkOpacity=0.05;darkOpacity2=0.1;rotation=-60;shadow=1;" vertex="1" parent="YSPkvzpbNLPz3blq78pu-16">
          <mxGeometry x="36.61165235168156" y="32.21825406947978" width="176.77669529663686" height="155.56349186104043" as="geometry" />
        </mxCell>
        <mxCell id="YSPkvzpbNLPz3blq78pu-14" value="" style="shape=cube;whiteSpace=wrap;html=1;boundedLbl=1;backgroundOutline=1;darkOpacity=0.05;darkOpacity2=0.1;rotation=-75;shadow=1;" vertex="1" parent="YSPkvzpbNLPz3blq78pu-16">
          <mxGeometry x="36.61165235168156" y="32.21825406947978" width="176.77669529663686" height="155.56349186104043" as="geometry" />
        </mxCell>
        <mxCell id="YSPkvzpbNLPz3blq78pu-15" value="" style="shape=cube;whiteSpace=wrap;html=1;boundedLbl=1;backgroundOutline=1;darkOpacity=0.05;darkOpacity2=0.1;rotation=-90;fillColor=#ffc929;gradientColor=#edd692;strokeColor=#d6b656;shadow=1;" vertex="1" parent="YSPkvzpbNLPz3blq78pu-16">
          <mxGeometry x="36.61165235168156" y="32.21825406947978" width="176.77669529663686" height="155.56349186104043" as="geometry" />
        </mxCell>
        <mxCell id="YSPkvzpbNLPz3blq78pu-34" value="" style="group;fillColor=#04276c;strokeColor=#001DBC;fontColor=#ffffff;gradientColor=none;shadow=0;" vertex="1" connectable="0" parent="1">
          <mxGeometry x="530.0014575050761" y="230.00145750507625" width="113.13708498984761" height="113.13708498984761" as="geometry" />
        </mxCell>
        <mxCell id="YSPkvzpbNLPz3blq78pu-35" value="" style="shape=cube;whiteSpace=wrap;html=1;boundedLbl=1;backgroundOutline=1;darkOpacity=0.05;darkOpacity2=0.1;shadow=0;" vertex="1" parent="YSPkvzpbNLPz3blq78pu-34">
          <mxGeometry x="16.568542494923804" y="16.568542494923804" width="80" height="80" as="geometry" />
        </mxCell>
        <mxCell id="YSPkvzpbNLPz3blq78pu-36" value="" style="shape=cube;whiteSpace=wrap;html=1;boundedLbl=1;backgroundOutline=1;darkOpacity=0.05;darkOpacity2=0.1;rotation=-15;shadow=0;" vertex="1" parent="YSPkvzpbNLPz3blq78pu-34">
          <mxGeometry x="16.568542494923804" y="16.568542494923804" width="80" height="80" as="geometry" />
        </mxCell>
        <mxCell id="YSPkvzpbNLPz3blq78pu-37" value="" style="shape=cube;whiteSpace=wrap;html=1;boundedLbl=1;backgroundOutline=1;darkOpacity=0.05;darkOpacity2=0.1;rotation=-30;shadow=0;" vertex="1" parent="YSPkvzpbNLPz3blq78pu-34">
          <mxGeometry x="16.568542494923804" y="16.568542494923804" width="80" height="80" as="geometry" />
        </mxCell>
        <mxCell id="YSPkvzpbNLPz3blq78pu-38" value="" style="shape=cube;whiteSpace=wrap;html=1;boundedLbl=1;backgroundOutline=1;darkOpacity=0.05;darkOpacity2=0.1;rotation=-45;shadow=0;" vertex="1" parent="YSPkvzpbNLPz3blq78pu-34">
          <mxGeometry x="16.568542494923804" y="16.568542494923804" width="80" height="80" as="geometry" />
        </mxCell>
        <mxCell id="YSPkvzpbNLPz3blq78pu-39" value="" style="shape=cube;whiteSpace=wrap;html=1;boundedLbl=1;backgroundOutline=1;darkOpacity=0.05;darkOpacity2=0.1;rotation=-60;shadow=0;" vertex="1" parent="YSPkvzpbNLPz3blq78pu-34">
          <mxGeometry x="16.568542494923804" y="16.568542494923804" width="80" height="80" as="geometry" />
        </mxCell>
        <mxCell id="YSPkvzpbNLPz3blq78pu-40" value="" style="shape=cube;whiteSpace=wrap;html=1;boundedLbl=1;backgroundOutline=1;darkOpacity=0.05;darkOpacity2=0.1;rotation=-75;shadow=0;" vertex="1" parent="YSPkvzpbNLPz3blq78pu-34">
          <mxGeometry x="16.568542494923804" y="16.568542494923804" width="80" height="80" as="geometry" />
        </mxCell>
        <mxCell id="YSPkvzpbNLPz3blq78pu-41" value="" style="shape=cube;whiteSpace=wrap;html=1;boundedLbl=1;backgroundOutline=1;darkOpacity=0.05;darkOpacity2=0.1;rotation=-90;fillColor=#ffe28a;gradientColor=#ffd966;strokeColor=#d6b656;shadow=0;" vertex="1" parent="YSPkvzpbNLPz3blq78pu-34">
          <mxGeometry x="16.568542494923804" y="16.568542494923804" width="80" height="80" as="geometry" />
        </mxCell>
      </root>
    </mxGraphModel>
  </diagram>
</mxfile>
